; $f4001
sound20Start:
; @addr{f4001}
sound20Channel1:
	vibrato $00
	env $0 $00
	duty $02
musicf4007:
	vol $0
	note gs3 $20
	vol $6
	note e4  $04
	wait1 $02
	vol $3
	note e4  $02
	vol $6
	note e4  $04
	wait1 $02
	vol $3
	note e4  $02
	vol $6
	note e4  $04
	wait1 $02
	vol $3
	note e4  $02
	vol $6
	note e4  $04
	wait1 $02
	vol $3
	note e4  $02
	vol $6
	note e4  $04
	wait1 $02
	vol $3
	note e4  $04
	wait1 $02
	vol $1
	note e4  $04
	vol $6
	note d4  $04
	wait1 $04
	vol $3
	note d4  $04
	wait1 $04
	vol $6
	note d4  $04
	wait1 $04
	vol $3
	note d4  $04
	wait1 $04
	vol $6
	note g4  $04
	wait1 $04
	vol $3
	note g4  $04
	wait1 $04
	vol $6
	note g4  $04
	wait1 $04
	vol $3
	note g4  $04
	wait1 $04
	vol $6
	note fs4 $04
	wait1 $04
	vol $3
	note fs4 $04
	wait1 $04
	vol $1
	note fs4 $04
	wait1 $1c
	vol $6
	note g4  $04
	wait1 $02
	vol $3
	note g4  $02
	vol $6
	note g4  $04
	wait1 $02
	vol $3
	note g4  $02
	vol $6
	note g4  $04
	wait1 $02
	vol $3
	note g4  $02
	vol $6
	note g4  $04
	wait1 $02
	vol $3
	note g4  $02
	vol $6
	note g4  $04
	wait1 $02
	vol $3
	note g4  $04
	wait1 $06
	vol $6
	note fs4 $04
	wait1 $04
	vol $3
	note fs4 $04
	wait1 $04
	vol $6
	note fs4 $04
	wait1 $04
	vol $3
	note fs4 $04
	wait1 $04
	vol $6
	note e4  $04
	wait1 $04
	vol $3
	note e4  $04
	wait1 $04
	vol $6
	note e4  $04
	wait1 $04
	vol $3
	note e4  $04
	wait1 $04
	vol $6
	note fs4 $04
	wait1 $04
	vol $3
	note fs4 $04
	wait1 $04
	vol $1
	note fs4 $04
	wait1 $1c
	vol $6
	note e4  $04
	wait1 $02
	vol $3
	note e4  $02
	vol $6
	note e4  $04
	wait1 $02
	vol $3
	note e4  $02
	vol $6
	note e4  $04
	wait1 $02
	vol $3
	note e4  $02
	vol $6
	note e4  $04
	wait1 $02
	vol $3
	note e4  $02
	vol $6
	note e4  $04
	wait1 $02
	vol $3
	note e4  $04
	wait1 $06
	vol $6
	note d4  $04
	wait1 $04
	vol $3
	note d4  $04
	wait1 $04
	vol $6
	note e4  $04
	wait1 $04
	vol $3
	note e4  $04
	wait1 $04
	vol $6
	note fs4 $04
	wait1 $04
	vol $3
	note fs4 $04
	wait1 $04
	vol $6
	note g4  $04
	wait1 $04
	vol $3
	note g4  $04
	wait1 $04
	vol $6
	note fs4 $04
	wait1 $04
	vol $3
	note fs4 $04
	wait1 $04
	vol $6
	note e4  $04
	wait1 $04
	vol $3
	note e4  $04
	wait1 $04
	vol $6
	note d4  $04
	wait1 $04
	vol $3
	note d4  $04
	wait1 $04
	vol $6
	note e4  $18
	vol $3
	note e4  $08
	vol $6
	note e4  $04
	wait1 $04
	vol $3
	note e4  $04
	wait1 $04
	vol $6
	note g4  $18
	vol $3
	note g4  $08
	vol $6
	note d4  $04
	wait1 $04
	vol $3
	note d4  $04
	wait1 $04
	vol $6
	note e4  $14
	vol $3
	note e4  $0c
	wait1 $20
	vol $6
	note e4  $04
	wait1 $02
	vol $3
	note e4  $02
	vol $6
	note e4  $04
	wait1 $02
	vol $3
	note e4  $02
	vol $6
	note e4  $04
	wait1 $02
	vol $3
	note e4  $02
	vol $6
	note e4  $04
	wait1 $02
	vol $3
	note e4  $02
	vol $6
	note e4  $04
	wait1 $04
	vol $3
	note e4  $04
	wait1 $04
	vol $6
	note d4  $04
	wait1 $04
	vol $3
	note d4  $04
	wait1 $04
	vol $6
	note d4  $04
	wait1 $04
	vol $3
	note d4  $04
	wait1 $04
	vol $6
	note g4  $04
	wait1 $04
	vol $3
	note g4  $04
	wait1 $04
	vol $6
	note g4  $04
	wait1 $04
	vol $3
	note g4  $04
	wait1 $04
	vol $6
	note fs4 $04
	wait1 $04
	vol $3
	note fs4 $04
	wait1 $24
	vol $6
	note b4  $04
	wait1 $02
	vol $3
	note b4  $02
	vol $6
	note b4  $04
	wait1 $02
	vol $3
	note b4  $02
	vol $6
	note b4  $04
	wait1 $02
	vol $3
	note b4  $02
	vol $6
	note b4  $04
	wait1 $02
	vol $3
	note b4  $02
	vol $6
	note b4  $04
	wait1 $02
	vol $3
	note b4  $04
	wait1 $06
	vol $6
	note a4  $05
	wait1 $03
	vol $3
	note a4  $05
	wait1 $03
	vol $6
	note b4  $05
	wait1 $03
	vol $3
	note b4  $05
	wait1 $03
	vol $6
	note c5  $05
	wait1 $03
	vol $3
	note c5  $05
	wait1 $03
	vol $6
	note d5  $05
	wait1 $03
	vol $3
	note d5  $05
	wait1 $03
	vol $6
	note c5  $05
	wait1 $03
	vol $3
	note c5  $05
	wait1 $23
	vol $6
	note b4  $04
	wait1 $02
	vol $3
	note b4  $02
	vol $6
	note b4  $04
	wait1 $02
	vol $3
	note b4  $02
	vol $6
	note b4  $04
	wait1 $02
	vol $3
	note b4  $02
	vol $6
	note b4  $04
	wait1 $02
	vol $3
	note b4  $02
	vol $6
	note b4  $04
	wait1 $02
	vol $3
	note b4  $04
	wait1 $06
	vol $6
	note c5  $04
	wait1 $04
	vol $3
	note c5  $04
	wait1 $04
	vol $6
	note b4  $04
	wait1 $04
	vol $3
	note b4  $04
	wait1 $04
	vol $6
	note a4  $04
	wait1 $04
	vol $3
	note a4  $04
	wait1 $04
	vol $6
	note e4  $04
	wait1 $04
	vol $3
	note e4  $04
	wait1 $04
	vol $6
	note c4  $04
	wait1 $04
	vol $3
	note c4  $04
	wait1 $04
	vol $6
	note g4  $08
	note fs4 $08
	note e4  $08
	note d4  $08
	note e4  $30
	vol $3
	note e4  $10
	vol $1
	note e4  $08
	wait1 $18
	goto musicf4007
	cmdff
; $f4292
; @addr{f4292}
sound20Channel0:
	vibrato $00
	env $0 $00
	duty $02
musicf4298:
	vol $0
	note gs3 $20
	vol $6
	note c4  $04
	wait1 $02
	vol $3
	note c4  $02
	vol $6
	note c4  $04
	wait1 $02
	vol $3
	note c4  $02
	vol $6
	note c4  $04
	wait1 $02
	vol $3
	note c4  $02
	vol $6
	note c4  $04
	wait1 $02
	vol $3
	note c4  $02
	vol $6
	note c4  $04
	wait1 $02
	vol $3
	note c4  $04
	wait1 $06
	vol $6
	note b3  $04
	wait1 $04
	vol $3
	note b3  $04
	wait1 $04
	vol $6
	note b3  $04
	wait1 $04
	vol $3
	note b3  $04
	wait1 $04
	vol $6
	note e4  $04
	wait1 $04
	vol $3
	note e4  $04
	wait1 $04
	vol $6
	note e4  $04
	wait1 $04
	vol $3
	note e4  $04
	wait1 $04
	vol $6
	note d4  $04
	wait1 $04
	vol $3
	note d4  $04
	wait1 $24
	vol $6
	note e4  $04
	wait1 $02
	vol $3
	note e4  $02
	vol $6
	note e4  $04
	wait1 $02
	vol $3
	note e4  $02
	vol $6
	note e4  $04
	wait1 $02
	vol $3
	note e4  $02
	vol $6
	note e4  $04
	wait1 $02
	vol $3
	note e4  $02
	vol $6
	note e4  $04
	wait1 $02
	vol $3
	note e4  $04
	wait1 $06
	vol $6
	note d4  $04
	wait1 $04
	vol $3
	note d4  $04
	wait1 $04
	vol $6
	note d4  $04
	wait1 $04
	vol $3
	note d4  $04
	wait1 $04
	vol $6
	note c4  $04
	wait1 $04
	vol $3
	note c4  $04
	wait1 $04
	vol $6
	note c4  $04
	wait1 $04
	vol $3
	note c4  $04
	wait1 $04
	vol $6
	note d4  $04
	wait1 $04
	vol $3
	note d4  $04
	wait1 $24
	vol $6
	note c4  $04
	wait1 $02
	vol $3
	note c4  $02
	vol $6
	note c4  $04
	wait1 $02
	vol $3
	note c4  $02
	vol $6
	note c4  $04
	wait1 $02
	vol $3
	note c4  $02
	vol $6
	note c4  $04
	wait1 $02
	vol $3
	note c4  $02
	vol $6
	note c4  $04
	wait1 $02
	vol $3
	note c4  $04
	wait1 $06
	vol $6
	note b3  $04
	wait1 $04
	vol $3
	note b3  $04
	wait1 $04
	vol $6
	note c4  $04
	wait1 $04
	vol $3
	note c4  $04
	wait1 $04
	vol $6
	note d4  $04
	wait1 $04
	vol $3
	note d4  $04
	wait1 $04
	vol $6
	note e4  $04
	wait1 $04
	vol $3
	note e4  $04
	wait1 $04
	vol $6
	note d4  $04
	wait1 $04
	vol $3
	note d4  $04
	wait1 $04
	vol $6
	note c4  $04
	wait1 $04
	vol $3
	note c4  $04
	wait1 $04
	vol $6
	note b3  $04
	wait1 $04
	vol $3
	note b3  $04
	wait1 $04
	vol $6
	note c4  $14
	vol $3
	note c4  $0c
	vol $6
	note c4  $04
	wait1 $04
	vol $3
	note c4  $04
	wait1 $04
	vol $6
	note d4  $18
	vol $3
	note d4  $08
	vol $6
	note b3  $04
	wait1 $04
	vol $3
	note b3  $04
	wait1 $04
	vol $6
	note c4  $14
	vol $3
	note c4  $0c
	wait1 $20
	vol $6
	note c4  $04
	wait1 $02
	vol $3
	note c4  $02
	vol $6
	note c4  $04
	wait1 $02
	vol $3
	note c4  $02
	vol $6
	note c4  $04
	wait1 $02
	vol $3
	note c4  $02
	vol $6
	note c4  $04
	wait1 $02
	vol $3
	note c4  $02
	vol $6
	note c4  $04
	wait1 $02
	vol $3
	note c4  $04
	wait1 $06
	vol $6
	note b3  $04
	wait1 $04
	vol $3
	note b3  $04
	wait1 $04
	vol $6
	note b3  $04
	wait1 $04
	vol $3
	note b3  $04
	wait1 $04
	vol $6
	note c4  $04
	wait1 $04
	vol $3
	note c4  $04
	wait1 $04
	vol $6
	note e4  $04
	wait1 $04
	vol $3
	note e4  $04
	wait1 $04
	vol $6
	note d4  $04
	wait1 $04
	vol $3
	note d4  $04
	wait1 $24
	vol $6
	note e4  $04
	wait1 $02
	vol $3
	note e4  $02
	vol $6
	note e4  $04
	wait1 $02
	vol $3
	note e4  $02
	vol $6
	note e4  $04
	wait1 $02
	vol $3
	note e4  $02
	vol $6
	note e4  $04
	wait1 $02
	vol $3
	note e4  $02
	vol $6
	note e4  $04
	wait1 $02
	vol $3
	note e4  $04
	wait1 $06
	vol $6
	note d4  $04
	wait1 $04
	vol $3
	note d4  $04
	wait1 $04
	vol $6
	note d4  $04
	wait1 $04
	vol $3
	note d4  $04
	wait1 $04
	vol $6
	note f4  $04
	wait1 $04
	vol $3
	note f4  $04
	wait1 $04
	vol $6
	note e4  $04
	wait1 $04
	vol $3
	note e4  $04
	wait1 $04
	vol $6
	note c4  $04
	wait1 $04
	vol $3
	note c4  $04
	wait1 $24
	vol $6
	note g4  $04
	wait1 $02
	vol $3
	note g4  $02
	vol $6
	note g4  $04
	wait1 $02
	vol $3
	note g4  $02
	vol $6
	note g4  $04
	wait1 $02
	vol $3
	note g4  $02
	vol $6
	note g4  $04
	wait1 $02
	vol $3
	note g4  $02
	vol $6
	note g4  $04
	wait1 $02
	vol $3
	note g4  $04
	wait1 $06
	vol $6
	note a4  $04
	wait1 $04
	vol $3
	note a4  $04
	wait1 $04
	vol $6
	note g4  $04
	wait1 $04
	vol $3
	note g4  $04
	wait1 $04
	vol $6
	note e4  $04
	wait1 $04
	vol $3
	note e4  $04
	wait1 $04
	vol $6
	note c4  $04
	wait1 $04
	vol $3
	note c4  $04
	wait1 $04
	vol $6
	note a3  $04
	wait1 $04
	vol $3
	note a3  $04
	wait1 $84
	goto musicf4298
	cmdff
; $f4503
; @addr{f4503}
sound20Channel4:
musicf4503:
	duty $0e
	note a2  $20
	note a3  $04
	wait1 $04
	note a3  $04
	wait1 $04
	note a3  $04
	wait1 $04
	note a3  $04
	wait1 $04
	note a3  $04
	wait1 $3c
	note b2  $20
	note c3  $20
	note c4  $04
	wait1 $04
	note c4  $04
	wait1 $04
	note c4  $04
	wait1 $04
	note c4  $04
	wait1 $04
	note c4  $04
	wait1 $0c
	note b3  $04
	wait1 $0c
	note b3  $04
	wait1 $0c
	note a3  $04
	wait1 $0c
	note a3  $04
	wait1 $0c
	note b3  $04
	wait1 $0c
	note a2  $20
	note a3  $04
	wait1 $04
	note a3  $04
	wait1 $04
	note a3  $04
	wait1 $04
	note a3  $04
	wait1 $04
	note a3  $04
	wait1 $1c
	note b2  $3c
	wait1 $04
	note b2  $20
	note a2  $12
	wait1 $0e
	note a2  $08
	wait1 $08
	note b2  $1c
	wait1 $04
	note g2  $04
	wait1 $0c
	note a2  $14
	wait1 $0c
	note a2  $20
	note a3  $04
	wait1 $04
	note a3  $04
	wait1 $04
	note a3  $04
	wait1 $04
	note a3  $04
	wait1 $04
	note a3  $04
	wait1 $1c
	note b2  $14
	wait1 $0c
	note e3  $05
	wait1 $0b
	note d3  $05
	wait1 $0b
	note c3  $20
	note c4  $04
	wait1 $04
	note c4  $04
	wait1 $04
	note c4  $04
	wait1 $04
	note c4  $04
	wait1 $04
	note c4  $04
	wait1 $1c
	note b2  $20
	note e2  $0d
	wait1 $03
	note g2  $0d
	wait1 $03
	note a2  $20
	note c4  $04
	wait1 $04
	note c4  $04
	wait1 $04
	note c4  $04
	wait1 $04
	note c4  $04
	wait1 $04
	duty $0e
	note c4  $04
	duty $0f
	note c4  $0c
	duty $0e
	note e3  $04
	duty $0f
	note e3  $0c
	duty $0e
	note e3  $04
	duty $0f
	note e3  $0c
	duty $0e
	note c3  $04
	duty $0f
	note c3  $0c
	duty $0e
	note c3  $04
	duty $0f
	note c3  $0c
	duty $0e
	note a2  $04
	duty $0f
	note a2  $0c
	duty $0e
	note d3  $20
	note a2  $08
	wait1 $08
	note fs2 $20
	note a2  $08
	wait1 $08
	note d2  $20
	goto musicf4503
	cmdff
; $f460f
; @addr{f460f}
sound20Channel6:
musicf460f:
	vol $5
	note $26 $10
	note $26 $08
	note $26 $08
	note $26 $10
	note $26 $10
	note $26 $08
	note $26 $08
	note $26 $08
	note $26 $08
	note $26 $10
	note $26 $08
	note $26 $04
	note $26 $04
	note $26 $02
	vol $4
	note $26 $02
	vol $4
	note $26 $04
	vol $4
	note $26 $02
	note $26 $02
	vol $3
	note $26 $04
	note $26 $02
	vol $4
	note $26 $02
	vol $4
	note $26 $04
	vol $4
	note $26 $02
	vol $5
	note $26 $02
	note $26 $04
	note $26 $10
	note $26 $08
	note $26 $08
	note $26 $10
	note $26 $10
	note $26 $08
	note $26 $08
	note $26 $08
	note $26 $08
	note $26 $10
	note $26 $08
	note $26 $04
	note $26 $04
	note $26 $02
	vol $4
	note $26 $02
	vol $4
	note $26 $04
	vol $4
	note $26 $02
	note $26 $02
	vol $3
	note $26 $04
	note $26 $02
	vol $4
	note $26 $02
	vol $4
	note $26 $04
	vol $4
	note $26 $02
	vol $5
	note $26 $02
	note $26 $04
	note $26 $10
	note $26 $08
	note $26 $08
	note $26 $10
	note $26 $10
	note $26 $08
	note $26 $08
	note $26 $08
	note $26 $08
	note $26 $10
	note $26 $08
	note $26 $04
	note $26 $04
	note $26 $02
	vol $4
	note $26 $02
	vol $4
	note $26 $04
	vol $4
	note $26 $02
	note $26 $02
	vol $3
	note $26 $04
	note $26 $02
	vol $4
	note $26 $02
	vol $4
	note $26 $04
	vol $4
	note $26 $02
	vol $5
	note $26 $02
	note $26 $04
	note $26 $10
	note $26 $08
	note $26 $08
	note $26 $10
	note $26 $10
	note $26 $08
	note $26 $08
	note $26 $08
	note $26 $08
	note $26 $10
	note $26 $08
	note $26 $04
	note $26 $04
	note $26 $02
	vol $4
	note $26 $02
	vol $4
	note $26 $04
	vol $4
	note $26 $02
	note $26 $02
	vol $3
	note $26 $04
	note $26 $02
	vol $4
	note $26 $02
	vol $4
	note $26 $04
	vol $4
	note $26 $02
	vol $5
	note $26 $02
	note $26 $04
	note $26 $10
	note $26 $08
	note $26 $08
	note $26 $10
	note $26 $10
	note $26 $08
	note $26 $08
	note $26 $08
	note $26 $08
	note $26 $10
	note $26 $08
	note $26 $04
	note $26 $04
	note $26 $02
	vol $4
	note $26 $02
	vol $4
	note $26 $04
	vol $4
	note $26 $02
	note $26 $02
	vol $3
	note $26 $04
	note $26 $02
	vol $4
	note $26 $02
	vol $4
	note $26 $04
	vol $4
	note $26 $02
	vol $5
	note $26 $02
	note $26 $04
	note $26 $10
	note $26 $08
	note $26 $08
	note $26 $10
	note $26 $10
	note $26 $08
	note $26 $08
	note $26 $08
	note $26 $08
	note $26 $10
	note $26 $08
	note $26 $04
	note $26 $04
	note $26 $02
	vol $4
	note $26 $02
	vol $4
	note $26 $04
	vol $4
	note $26 $02
	note $26 $02
	vol $3
	note $26 $04
	note $26 $02
	vol $4
	note $26 $02
	vol $4
	note $26 $04
	vol $4
	note $26 $02
	vol $5
	note $26 $02
	note $26 $04
	note $26 $10
	note $26 $08
	note $26 $08
	note $26 $10
	note $26 $10
	note $26 $08
	note $26 $08
	note $26 $08
	note $26 $08
	note $26 $10
	note $26 $08
	note $26 $04
	note $26 $04
	note $26 $02
	vol $4
	note $26 $02
	vol $4
	note $26 $04
	vol $4
	note $26 $02
	note $26 $02
	vol $3
	note $26 $04
	note $26 $02
	vol $4
	note $26 $02
	vol $4
	note $26 $04
	vol $4
	note $26 $02
	vol $5
	note $26 $02
	note $26 $04
	note $26 $10
	note $26 $10
	note $26 $08
	note $26 $08
	note $26 $08
	note $26 $08
	note $26 $10
	note $26 $08
	note $26 $04
	note $26 $04
	note $26 $02
	vol $4
	note $26 $02
	vol $4
	note $26 $04
	vol $4
	note $26 $02
	note $26 $02
	vol $3
	note $26 $04
	note $26 $02
	vol $4
	note $26 $02
	vol $4
	note $26 $04
	vol $4
	note $26 $02
	vol $5
	note $26 $02
	note $26 $04
	goto musicf460f
	cmdff