sound05Start:
; $ee53d
; @addr{ee53d}
sound05Channel1:
	vol $0
	note gs3 $ff
	vol $0
	note gs3 $01
	vibrato $00
	env $0 $00
	duty $02
musicee549:
	vol $6
	note g5  $30
	vol $3
	note g5  $10
	vol $6
	note fs5 $20
	note g5  $10
	note fs5 $10
	note e5  $10
	wait1 $08
	vol $3
	note e5  $08
	vol $6
	note a4  $10
	wait1 $08
	vol $3
	note a4  $08
	vol $6
	note a4  $10
	wait1 $08
	vol $3
	note a4  $08
	vol $6
	note a4  $0c
	wait1 $04
	note a4  $08
	note b4  $08
	note c5  $38
	vol $3
	note c5  $08
	vol $6
	note b4  $20
	note d5  $20
	note c5  $20
	note b4  $10
	note a4  $10
	note b4  $10
	wait1 $08
	vol $3
	note b4  $08
	vol $6
	note g4  $10
	wait1 $08
	vol $3
	note g4  $08
	vol $6
	note a4  $30
	vol $3
	note a4  $20
	vol $1
	note a4  $10
	vol $6
	note a4  $10
	note e5  $08
	wait1 $04
	vol $3
	note e5  $04
	vol $6
	note e5  $30
	vol $3
	note e5  $20
	vol $1
	note e5  $10
	wait1 $10
	vol $6
	note e5  $08
	note a5  $08
	note e5  $20
	vol $3
	note e5  $10
	vol $6
	note e5  $08
	note a5  $08
	note e5  $20
	vol $3
	note e5  $10
	vol $6
	note e5  $08
	note a5  $08
	note e5  $40
	vol $3
	note e5  $20
	vol $1
	note e5  $20
	vol $6
	note c6  $08
	wait1 $04
	vol $3
	note c6  $08
	wait1 $04
	vol $1
	note c6  $08
	vol $6
	note b5  $08
	wait1 $04
	vol $3
	note b5  $08
	wait1 $04
	vol $1
	note b5  $08
	vol $6
	note a5  $08
	wait1 $04
	vol $3
	note a5  $08
	wait1 $04
	vol $1
	note a5  $08
	vol $6
	note g5  $08
	wait1 $04
	vol $3
	note g5  $08
	wait1 $04
	vol $1
	note g5  $08
	vol $6
	note fs5 $48
	wait1 $08
	note g5  $10
	note a5  $10
	note b5  $10
	note c6  $08
	wait1 $04
	vol $3
	note c6  $08
	wait1 $04
	vol $1
	note c6  $08
	vol $6
	note b5  $08
	wait1 $04
	vol $3
	note b5  $08
	wait1 $04
	vol $1
	note b5  $08
	vol $6
	note a5  $08
	wait1 $04
	vol $3
	note a5  $08
	wait1 $04
	vol $1
	note a5  $08
	vol $6
	note g5  $08
	wait1 $04
	vol $3
	note g5  $08
	wait1 $04
	vol $1
	note g5  $08
	vol $6
	note fs5 $40
	vol $3
	note fs5 $10
	vol $6
	note fs5 $10
	note g5  $10
	note a5  $10
	note b5  $30
	vol $3
	note b5  $10
	vol $6
	note e6  $30
	vol $3
	note e6  $10
	vol $6
	note d6  $18
	vol $3
	note d6  $08
	vol $6
	note a5  $18
	vol $3
	note a5  $08
	vol $6
	note f5  $18
	vol $3
	note f5  $08
	vol $6
	note d5  $18
	vol $3
	note d5  $08
	wait1 $30
	vol $6
	note b4  $05
	note e5  $05
	note a4  $06
	note b4  $2a
	wait1 $06
	note b4  $04
	note e5  $04
	note fs5 $04
	note a5  $04
	note b5  $30
	note a5  $05
	note b5  $05
	note a5  $06
	note f5  $20
	note e5  $10
	note d5  $10
	goto musicee549
	cmdff
; $ee69d
; @addr{ee69d}
sound05Channel0:
	vibrato $00
	env $0 $00
	duty $02
	vol $6
	note a3  $08
	wait1 $08
	note b3  $08
	vol $3
	note a3  $08
	vol $6
	note d4  $08
	vol $3
	note b3  $08
	vol $6
	note e4  $08
	vol $3
	note d4  $08
	vol $6
	note a3  $08
	vol $3
	note e4  $08
	vol $6
	note b3  $08
	vol $3
	note a3  $08
	vol $6
	note d4  $08
	vol $3
	note b3  $08
	vol $6
	note e4  $08
	vol $3
	note d4  $08
	vol $6
	note a3  $08
	vol $3
	note e4  $08
	vol $6
	note b3  $08
	vol $3
	note a3  $08
	vol $6
	note d4  $08
	vol $3
	note b3  $08
	vol $6
	note e4  $08
	vol $3
	note d4  $08
	vol $6
	note a3  $08
	vol $3
	note e4  $08
	vol $6
	note b3  $08
	vol $3
	note a3  $08
	vol $6
	note d4  $08
	vol $3
	note b3  $08
	vol $6
	note e4  $08
	vol $3
	note d4  $08
musicee701:
	vol $6
	note a3  $08
	vol $3
	note e4  $08
	vol $6
	note b3  $08
	vol $3
	note a3  $08
	vol $6
	note d4  $08
	vol $3
	note b3  $08
	vol $6
	note e4  $08
	vol $3
	note d4  $08
	vol $6
	note a3  $08
	vol $3
	note e4  $08
	vol $6
	note b3  $08
	vol $3
	note a3  $08
	vol $6
	note d4  $08
	vol $3
	note b3  $08
	vol $6
	note e4  $08
	vol $3
	note d4  $08
	vol $6
	note a3  $08
	vol $3
	note e4  $08
	vol $6
	note b3  $08
	vol $3
	note a3  $08
	vol $6
	note d4  $08
	vol $3
	note b3  $08
	vol $6
	note e4  $08
	vol $3
	note d4  $08
	vol $6
	note a3  $08
	vol $3
	note e4  $08
	vol $6
	note b3  $08
	vol $3
	note a3  $08
	vol $6
	note d4  $08
	vol $3
	note b3  $08
	vol $6
	note e4  $08
	vol $3
	note d4  $08
	vol $6
	note a3  $08
	vol $3
	note e4  $08
	vol $6
	note b3  $08
	vol $3
	note a3  $08
	vol $6
	note d4  $08
	vol $3
	note b3  $08
	vol $6
	note e4  $08
	vol $3
	note d4  $08
	vol $6
	note a3  $08
	vol $3
	note e4  $08
	vol $6
	note b3  $08
	vol $3
	note a3  $08
	vol $6
	note d4  $08
	vol $3
	note b3  $08
	vol $6
	note e4  $08
	vol $3
	note d4  $08
	vol $6
	note a3  $08
	vol $3
	note e4  $08
	vol $6
	note b3  $08
	vol $3
	note a3  $08
	vol $6
	note d4  $08
	vol $3
	note b3  $08
	vol $6
	note e4  $08
	vol $3
	note d4  $08
	vol $6
	note a3  $08
	vol $3
	note e4  $08
	vol $6
	note b3  $08
	vol $3
	note a3  $08
	vol $6
	note d4  $08
	vol $3
	note b3  $08
	vol $6
	note e4  $08
	vol $3
	note d4  $08
	vol $6
	note f3  $08
	vol $3
	note e4  $08
	vol $6
	note a3  $08
	vol $3
	note f3  $08
	vol $6
	note b3  $08
	vol $3
	note a3  $08
	vol $6
	note d4  $08
	vol $3
	note b3  $08
	vol $6
	note f4  $08
	vol $3
	note d4  $08
	vol $6
	note a4  $08
	vol $3
	note f4  $08
	vol $6
	note b4  $08
	vol $3
	note a4  $08
	vol $6
	note d5  $08
	vol $3
	note b4  $08
	vol $6
	note f3  $08
	vol $3
	note d5  $08
	vol $6
	note a3  $08
	vol $3
	note f3  $08
	vol $6
	note b3  $08
	vol $3
	note a3  $08
	vol $6
	note d4  $08
	vol $3
	note b3  $08
	vol $6
	note f4  $08
	vol $3
	note d4  $08
	vol $6
	note a4  $08
	vol $3
	note f4  $08
	vol $6
	note b4  $08
	vol $3
	note a4  $08
	vol $6
	note d5  $08
	vol $3
	note b4  $08
	vol $6
	note e3  $08
	vol $3
	note d5  $08
	vol $6
	note a3  $08
	vol $3
	note e3  $08
	vol $6
	note b3  $08
	vol $3
	note a3  $08
	vol $6
	note d4  $08
	vol $3
	note b3  $08
	vol $6
	note e4  $08
	vol $3
	note d4  $08
	vol $6
	note a4  $08
	vol $3
	note e4  $08
	vol $6
	note b4  $08
	vol $3
	note a4  $08
	vol $6
	note d5  $08
	vol $3
	note b4  $08
	vol $6
	note e3  $08
	vol $3
	note d5  $08
	vol $6
	note g3  $08
	vol $3
	note e3  $08
	vol $6
	note b3  $08
	vol $3
	note g3  $08
	vol $6
	note d4  $08
	vol $3
	note b3  $08
	vol $6
	note e4  $08
	vol $3
	note d4  $08
	vol $6
	note a4  $08
	vol $3
	note e4  $08
	vol $6
	note b4  $08
	vol $3
	note a4  $08
	vol $6
	note d5  $08
	vol $3
	note b4  $08
	vol $6
	note ds3 $04
	wait1 $04
	note fs3 $04
	vol $3
	note ds3 $04
	vol $6
	note a3  $04
	vol $3
	note fs3 $04
	vol $6
	note c4  $04
	vol $3
	note a3  $04
	vol $6
	note ds3 $04
	vol $3
	note c4  $04
	vol $6
	note fs3 $04
	vol $3
	note ds3 $04
	vol $6
	note a3  $04
	vol $3
	note fs3 $04
	vol $6
	note c4  $04
	vol $3
	note a3  $04
	vol $6
	note ds3 $04
	vol $3
	note c4  $04
	vol $6
	note fs3 $04
	vol $3
	note ds3 $04
	vol $6
	note a3  $04
	vol $3
	note fs3 $04
	vol $6
	note c4  $04
	vol $3
	note a3  $04
	vol $6
	note ds3 $04
	vol $3
	note c4  $04
	vol $6
	note fs3 $04
	vol $3
	note ds3 $04
	vol $6
	note a3  $04
	vol $3
	note fs3 $04
	vol $6
	note c4  $04
	vol $3
	note a3  $04
	vol $6
	note ds3 $04
	vol $3
	note c4  $04
	vol $6
	note fs3 $04
	vol $3
	note ds3 $04
	vol $6
	note a3  $04
	vol $3
	note fs3 $04
	vol $6
	note c4  $04
	vol $3
	note a3  $04
	vol $6
	note fs3 $04
	vol $3
	note c4  $04
	vol $6
	note a3  $04
	vol $3
	note fs3 $04
	vol $6
	note c4  $04
	vol $3
	note a3  $04
	vol $6
	note ds4 $04
	vol $3
	note c4  $04
	vol $6
	note a3  $04
	vol $3
	note ds4 $04
	vol $6
	note c4  $04
	vol $3
	note a3  $04
	vol $6
	note ds4 $04
	vol $3
	note c4  $04
	vol $6
	note fs4 $04
	vol $3
	note ds4 $04
	vol $6
	note ds4 $04
	vol $3
	note fs4 $04
	vol $6
	note fs4 $04
	vol $3
	note ds4 $04
	vol $6
	note a4  $04
	vol $3
	note fs4 $04
	vol $6
	note c5  $04
	vol $3
	note a4  $04
	vol $6
	note ds3 $04
	vol $3
	note c5  $04
	vol $6
	note fs3 $04
	vol $3
	note ds3 $04
	vol $6
	note a3  $04
	vol $3
	note fs3 $04
	vol $6
	note c4  $04
	vol $3
	note a3  $04
	vol $6
	note ds3 $04
	vol $3
	note c4  $04
	vol $6
	note fs3 $04
	vol $3
	note ds3 $04
	vol $6
	note a3  $04
	vol $3
	note fs3 $04
	vol $6
	note c4  $04
	vol $3
	note a3  $04
	vol $6
	note ds3 $04
	vol $3
	note c4  $04
	vol $6
	note fs3 $04
	vol $3
	note ds3 $04
	vol $6
	note a3  $04
	vol $3
	note fs3 $04
	vol $6
	note c4  $04
	vol $3
	note a3  $04
	vol $6
	note ds3 $04
	vol $3
	note c4  $04
	vol $6
	note fs3 $04
	vol $3
	note ds3 $04
	vol $6
	note a3  $04
	vol $3
	note fs3 $04
	vol $6
	note c4  $04
	vol $3
	note a3  $04
	vol $6
	note ds3 $04
	vol $3
	note c4  $04
	vol $6
	note fs3 $04
	vol $3
	note ds3 $04
	vol $6
	note a3  $04
	vol $3
	note fs3 $04
	vol $6
	note c4  $04
	vol $3
	note a3  $04
	vol $6
	note fs3 $04
	vol $3
	note c4  $04
	vol $6
	note a3  $04
	vol $3
	note fs3 $04
	vol $6
	note c4  $04
	vol $3
	note a3  $04
	vol $6
	note ds4 $04
	vol $3
	note c4  $04
	vol $6
	note a3  $04
	vol $3
	note ds4 $04
	vol $6
	note c4  $04
	vol $3
	note a3  $04
	vol $6
	note ds4 $04
	vol $3
	note c4  $04
	vol $6
	note fs4 $04
	vol $3
	note ds4 $04
	vol $6
	note ds4 $04
	vol $3
	note fs4 $04
	vol $6
	note fs4 $04
	vol $3
	note ds4 $04
	vol $6
	note a4  $04
	vol $3
	note fs4 $04
	vol $6
	note c5  $04
	vol $3
	note a4  $04
	vol $6
	note g3  $08
	wait1 $08
	note b3  $08
	vol $3
	note g3  $08
	vol $6
	note e4  $08
	vol $3
	note b3  $08
	vol $6
	note g4  $08
	vol $3
	note e4  $08
	vol $6
	note g3  $08
	vol $3
	note g4  $08
	vol $6
	note b3  $08
	vol $3
	note g3  $08
	vol $6
	note e4  $08
	vol $3
	note b3  $08
	vol $6
	note g4  $08
	vol $3
	note e4  $08
	vol $6
	note f3  $08
	vol $3
	note g4  $08
	vol $6
	note a3  $08
	vol $3
	note f3  $08
	vol $6
	note c4  $08
	vol $3
	note a3  $08
	vol $6
	note f4  $08
	vol $3
	note c4  $08
	vol $6
	note f3  $08
	vol $3
	note f4  $08
	vol $6
	note a3  $08
	vol $3
	note f3  $08
	vol $6
	note c4  $08
	vol $3
	note a3  $08
	vol $6
	note f4  $08
	vol $3
	note c4  $08
	vol $6
	note c3  $08
	vol $3
	note f4  $08
	vol $6
	note e3  $08
	vol $3
	note c3  $08
	vol $6
	note g3  $08
	vol $3
	note e3  $08
	vol $6
	note b3  $08
	vol $3
	note g3  $08
	vol $6
	note c3  $08
	vol $3
	note b3  $08
	vol $6
	note e3  $08
	vol $3
	note c3  $08
	vol $6
	note g3  $08
	vol $3
	note e3  $08
	vol $6
	note b3  $08
	vol $3
	note g3  $08
	vol $6
	note b2  $08
	vol $3
	note b3  $08
	vol $6
	note d3  $08
	vol $3
	note b2  $08
	vol $6
	note fs3 $08
	vol $3
	note d3  $08
	vol $6
	note a3  $08
	vol $3
	note fs3 $08
	vol $6
	note as2 $08
	vol $3
	note a3  $08
	vol $6
	note d3  $08
	vol $3
	note as2 $08
	vol $6
	note e3  $08
	vol $3
	note d3  $08
	vol $6
	note g3  $08
	vol $3
	note e3  $08
	goto musicee701
	cmdff
; $eeac1
; @addr{eeac1}
sound05Channel4:
	duty $08
	wait1 $ff
	wait1 $25
musiceeac7:
	note g5  $30
	wait1 $10
	note fs5 $20
	note g5  $10
	note fs5 $10
	note e5  $10
	wait1 $10
	note a4  $10
	wait1 $10
	note a4  $10
	wait1 $10
	note a4  $0c
	wait1 $04
	note a4  $08
	note b4  $08
	note c5  $38
	wait1 $08
	note b4  $20
	note d5  $20
	note c5  $20
	note b4  $10
	note a4  $10
	note b4  $10
	wait1 $10
	note g4  $10
	wait1 $10
	note a4  $60
	wait1 $10
	note e5  $08
	wait1 $08
	note e5  $60
	wait1 $10
	note e5  $08
	note a5  $08
	note e5  $30
	note e5  $08
	note a5  $08
	note e5  $30
	note e5  $08
	note a5  $08
	note e5  $30
	wait1 $ff
	wait1 $ff
	duty $08
	wait1 $32
	note g5  $10
	note a5  $10
	note b5  $30
	wait1 $10
	note e6  $30
	note e6  $10
	note d6  $18
	wait1 $08
	note a5  $18
	wait1 $08
	note f5  $18
	wait1 $08
	note d5  $18
	wait1 $38
	note b4  $05
	note e5  $05
	note a4  $06
	note b4  $2a
	wait1 $06
	note b4  $04
	note e5  $04
	note fs5 $04
	note a5  $04
	note b5  $30
	note a5  $05
	note b5  $05
	note a5  $06
	note f5  $20
	note e5  $10
	note d5  $10
	goto musiceeac7
sound05Channel6:
	cmdff