; $f83e2
sound3eStart:
; @addr{f83e2}
sound3eChannel1:
	vibrato $00
	env $0 $00
	duty $02
musicf83e8:
	vol $0
	note gs3 $30
	vol $6
	note e4  $0d
	wait1 $03
	vol $3
	note e4  $02
	wait1 $02
	vol $6
	note e4  $04
	wait1 $04
	vol $3
	note e4  $04
	wait1 $10
	vol $6
	note d4  $08
	wait1 $02
	vol $3
	note d4  $04
	wait1 $02
	vol $6
	note c4  $08
	wait1 $02
	vol $3
	note c4  $04
	wait1 $02
	vol $3
	note c4  $02
	wait1 $ae
	vol $6
	note e4  $05
	wait1 $03
	vol $6
	note e4  $05
	wait1 $03
	vol $6
	note e4  $05
	wait1 $05
	vol $3
	note e4  $04
	wait1 $02
	vol $6
	note e4  $05
	wait1 $05
	vol $3
	note e4  $04
	wait1 $02
	vol $6
	note d4  $05
	wait1 $03
	vol $3
	note d4  $04
	wait1 $04
	vol $6
	note c4  $05
	wait1 $03
	vol $3
	note c4  $04
	wait1 $04
	vol $2
	note c4  $02
	wait1 $5e
	vol $6
	note as3 $08
	wait1 $02
	vol $3
	note as3 $04
	wait1 $02
	vol $6
	note c4  $04
	wait1 $04
	vol $3
	note c4  $04
	wait1 $04
	vol $2
	note c4  $02
	wait1 $2e
	vol $6
	note e4  $0d
	wait1 $03
	note e4  $02
	wait1 $02
	vol $3
	note e4  $04
	wait1 $04
	vol $3
	note e4  $04
	wait1 $10
	vol $6
	note d4  $08
	wait1 $02
	vol $3
	note d4  $04
	wait1 $02
	vol $6
	note c4  $08
	wait1 $02
	vol $3
	note c4  $04
	wait1 $04
	vol $1
	note c4  $02
	wait1 $ac
	vol $6
	note e4  $05
	wait1 $03
	vol $6
	note e4  $05
	wait1 $03
	vol $6
	note e4  $05
	wait1 $05
	vol $3
	note e4  $04
	wait1 $02
	vol $6
	note e4  $05
	wait1 $05
	vol $3
	note e4  $04
	wait1 $02
	vol $6
	note d4  $05
	wait1 $03
	vol $3
	note d4  $04
	wait1 $04
	vol $6
	note c4  $05
	wait1 $03
	vol $3
	note c4  $04
	wait1 $04
	vol $2
	note c4  $02
	wait1 $5e
	vol $6
	note as3 $08
	wait1 $02
	vol $3
	note as3 $04
	wait1 $02
	vol $6
	note c4  $04
	wait1 $04
	vol $3
	note c4  $04
	wait1 $04
	vol $1
	note c4  $02
	wait1 $5e
	vol $6
	note as3 $08
	wait1 $02
	vol $3
	note as3 $02
	wait1 $04
	vol $6
	note c4  $04
	wait1 $04
	vol $3
	note c4  $02
	wait1 $06
	vol $6
	note as3 $08
	wait1 $02
	vol $3
	note as3 $02
	wait1 $04
	vol $6
	note c4  $04
	wait1 $04
	vol $3
	note c4  $02
	wait1 $46
	vol $6
	note as3 $08
	wait1 $02
	vol $3
	note as3 $02
	wait1 $04
	vol $6
	note c4  $04
	wait1 $04
	vol $3
	note c4  $02
	wait1 $06
	vol $1
	note c4  $02
	wait1 $5e
	vol $6
	note as3 $08
	wait1 $02
	vol $3
	note as3 $02
	wait1 $04
	vol $6
	note c4  $04
	wait1 $04
	vol $3
	note c4  $02
	wait1 $06
	vol $6
	note d4  $08
	wait1 $02
	vol $3
	note d4  $02
	wait1 $04
	vol $6
	note c4  $04
	wait1 $04
	vol $3
	note c4  $02
	wait1 $06
	vol $6
	note as3 $08
	wait1 $02
	vol $3
	note as3 $02
	wait1 $04
	vol $6
	note c4  $04
	wait1 $04
	vol $3
	note c4  $02
	wait1 $06
	vol $1
	note c4  $02
	wait1 $ff
	wait1 $ff
	wait1 $10
	vol $6
	note g4  $08
	wait1 $02
	vol $3
	note g4  $02
	wait1 $04
	vol $6
	note a4  $08
	wait1 $02
	vol $3
	note a4  $02
	wait1 $04
	vol $6
	note g4  $08
	wait1 $02
	vol $3
	note g4  $02
	wait1 $04
	vol $6
	note a4  $08
	wait1 $02
	vol $3
	note a4  $02
	wait1 $04
	vol $6
	note g4  $08
	wait1 $02
	vol $3
	note g4  $02
	wait1 $04
	vol $6
	note as4 $0c
	wait1 $01
	vol $3
	note as4 $03
	wait1 $02
	note as4 $02
	wait1 $0c
	vol $6
	note as4 $0a
	wait1 $02
	vol $1
	note as4 $04
	wait1 $02
	vol $3
	note as4 $02
	wait1 $06
	vol $2
	note as4 $02
	wait1 $04
	vol $6
	note a4  $08
	wait1 $02
	vol $3
	note a4  $02
	wait1 $04
	vol $6
	note g4  $08
	wait1 $02
	vol $3
	note g4  $02
	wait1 $34
	vol $6
	note g4  $08
	wait1 $02
	vol $3
	note g4  $02
	wait1 $04
	vol $6
	note a4  $08
	wait1 $02
	vol $3
	note a4  $02
	wait1 $04
	vol $6
	note g4  $08
	wait1 $02
	vol $3
	note g4  $02
	wait1 $04
	vol $6
	note a4  $08
	wait1 $02
	vol $3
	note a4  $02
	wait1 $04
	vol $6
	note g4  $08
	wait1 $02
	vol $3
	note g4  $02
	wait1 $04
	vol $6
	note a4  $08
	wait1 $02
	vol $3
	note a4  $02
	wait1 $04
	vol $6
	note g4  $08
	wait1 $02
	vol $3
	note g4  $02
	wait1 $04
	vol $6
	note as4 $0c
	wait1 $01
	vol $3
	note as4 $03
	wait1 $05
	vol $3
	note as4 $03
	wait1 $02
	vol $3
	note as4 $02
	wait1 $04
	vol $6
	note as4 $10
	wait1 $02
	vol $3
	note as4 $02
	wait1 $06
	note as4 $02
	wait1 $04
	vol $6
	note a4  $08
	wait1 $02
	vol $3
	note a4  $02
	wait1 $04
	vol $6
	note g4  $08
	wait1 $02
	vol $3
	note g4  $02
	vol $0
	wait1 $ff
	vol $0
	wait1 $ff
	wait1 $36
	vol $6
	note e4  $0d
	wait1 $03
	note e4  $02
	wait1 $02
	vol $4
	note e4  $04
	wait1 $04
	vol $3
	note e4  $04
	wait1 $10
	vol $6
	note d4  $08
	wait1 $02
	vol $3
	note d4  $04
	wait1 $02
	vol $6
	note c4  $08
	wait1 $02
	vol $3
	note c4  $04
	wait1 $04
	vol $2
	note c4  $02
	wait1 $ac
	vol $6
	note e4  $05
	wait1 $03
	vol $6
	note e4  $05
	wait1 $03
	vol $6
	note e4  $05
	wait1 $05
	vol $3
	note e4  $04
	wait1 $02
	vol $6
	note e4  $05
	wait1 $05
	vol $3
	note e4  $04
	wait1 $02
	vol $6
	note d4  $05
	wait1 $03
	vol $3
	note d4  $04
	wait1 $04
	vol $6
	note c4  $05
	wait1 $03
	vol $3
	note c4  $04
	wait1 $04
	vol $2
	note c4  $02
	wait1 $4e
	vol $6
	note g4  $08
	wait1 $02
	vol $3
	note g4  $02
	wait1 $04
	vol $6
	note a4  $08
	wait1 $02
	vol $3
	note a4  $02
	wait1 $04
	vol $6
	note g4  $08
	wait1 $02
	vol $3
	note g4  $02
	wait1 $04
	vol $6
	note a4  $08
	wait1 $02
	vol $3
	note a4  $02
	wait1 $04
	vol $6
	note g4  $08
	wait1 $02
	vol $3
	note g4  $02
	wait1 $04
	vol $6
	note as4 $08
	wait1 $02
	vol $3
	note as4 $02
	wait1 $06
	note as4 $02
	wait1 $06
	note as4 $02
	wait1 $04
	vol $6
	note as4 $08
	wait1 $02
	vol $3
	note as4 $02
	wait1 $06
	vol $3
	note as4 $02
	wait1 $06
	vol $2
	note as4 $02
	wait1 $04
	vol $6
	note a4  $08
	wait1 $02
	vol $3
	note a4  $02
	wait1 $04
	vol $6
	note g4  $08
	wait1 $02
	vol $3
	note g4  $02
	wait1 $34
	vol $6
	note g4  $08
	wait1 $02
	vol $3
	note g4  $02
	wait1 $04
	vol $6
	note a4  $08
	wait1 $02
	vol $3
	note a4  $02
	wait1 $04
	vol $6
	note g4  $08
	wait1 $02
	vol $3
	note g4  $02
	wait1 $04
	vol $6
	note a4  $08
	wait1 $02
	vol $3
	note a4  $02
	wait1 $04
	vol $6
	note g4  $08
	wait1 $02
	vol $3
	note g4  $02
	wait1 $04
	vol $6
	note a4  $08
	wait1 $02
	vol $3
	note a4  $02
	wait1 $04
	vol $6
	note g4  $08
	wait1 $02
	vol $3
	note g4  $02
	wait1 $04
	vol $6
	note as4 $08
	wait1 $02
	vol $3
	note as4 $02
	wait1 $06
	vol $3
	note as4 $02
	wait1 $06
	vol $3
	note as4 $02
	wait1 $04
	vol $6
	note as4 $08
	wait1 $02
	vol $5
	note as4 $02
	wait1 $06
	vol $4
	note as4 $02
	wait1 $06
	vol $3
	note as4 $02
	wait1 $04
	vol $6
	note a4  $08
	wait1 $02
	vol $3
	note a4  $02
	wait1 $04
	vol $6
	note g4  $08
	wait1 $02
	vol $3
	note g4  $02
	vol $0
	wait1 $ff
	vol $0
	wait1 $85
	goto musicf83e8
	cmdff
; $f87ad
; @addr{f87ad}
sound3eChannel0:
	vibrato $00
	env $0 $00
	duty $02
musicf87b3:
	vol $6
	note c2  $08
	wait1 $08
	note c2  $08
	wait1 $08
	note e3  $10
	note c3  $08
	note g2  $08
	wait1 $10
	note g2  $08
	wait1 $08
	note c3  $08
	wait1 $08
	note g2  $08
	wait1 $08
	note c2  $08
	wait1 $08
	note c2  $08
	wait1 $08
	note e3  $10
	note c3  $08
	note g2  $04
	wait1 $04
	note g2  $08
	wait1 $08
	note as2 $08
	wait1 $08
	note c3  $08
	wait1 $08
	note g2  $08
	wait1 $08
	note c2  $08
	wait1 $08
	note c2  $08
	wait1 $08
	note e3  $10
	note c3  $08
	note g2  $04
	wait1 $04
	note g2  $08
	wait1 $08
	note as2 $08
	wait1 $08
	note c3  $08
	wait1 $08
	note g2  $08
	wait1 $08
	note c2  $08
	wait1 $08
	note c2  $08
	wait1 $08
	note e3  $10
	note c3  $08
	note g2  $04
	wait1 $04
	note g2  $18
	wait1 $08
	note as2 $08
	wait1 $08
	note c3  $08
	wait1 $08
	note c2  $08
	wait1 $08
	note c2  $08
	wait1 $08
	note e3  $10
	note c3  $08
	note g2  $08
	wait1 $10
	note g2  $08
	wait1 $08
	note c3  $08
	wait1 $08
	note g2  $08
	wait1 $08
	note c2  $08
	wait1 $08
	note c2  $08
	wait1 $08
	note e3  $10
	note c3  $08
	note g2  $08
	wait1 $10
	note g2  $08
	note as2 $08
	note c3  $08
	wait1 $08
	note g2  $08
	wait1 $08
	note c2  $08
	wait1 $08
	note c2  $08
	wait1 $08
	note e3  $10
	note c3  $08
	note g2  $04
	wait1 $04
	note g2  $10
	wait1 $10
	note as2 $08
	wait1 $08
	note c3  $08
	wait1 $08
	note c2  $20
	note e3  $08
	wait1 $08
	note g2  $08
	wait1 $18
	note g2  $08
	wait1 $08
	note as2 $08
	wait1 $08
	note c3  $08
	wait1 $08
	note c2  $08
	wait1 $08
	note c2  $08
	wait1 $08
	note e3  $10
	note g2  $08
	wait1 $08
	note as2 $10
	note c3  $08
	wait1 $08
	note as2 $10
	note c3  $08
	wait1 $08
	note c2  $08
	wait1 $08
	note c2  $08
	wait1 $08
	note e3  $10
	note g2  $08
	wait1 $18
	note g2  $08
	wait1 $08
	note as2 $10
	note c3  $08
	wait1 $08
	note c2  $08
	wait1 $08
	note c2  $08
	wait1 $08
	note e3  $10
	note g2  $08
	wait1 $18
	note g2  $08
	wait1 $08
	note as2 $10
	note c3  $08
	wait1 $08
	note as2 $10
	note c3  $08
	wait1 $08
	note e3  $10
	note c3  $08
	wait1 $18
	note g2  $10
	note as2 $10
	note c3  $08
	wait1 $08
	note c2  $08
	wait1 $08
	note c2  $08
	wait1 $08
	note e3  $10
	note g2  $08
	wait1 $18
	note g2  $08
	wait1 $08
	note c3  $08
	wait1 $08
	note g2  $08
	wait1 $08
	note c2  $08
	wait1 $10
	note c2  $08
	note e3  $18
	note g2  $04
	wait1 $04
	note g2  $08
	wait1 $08
	note g2  $08
	note as2 $08
	note c3  $08
	wait1 $08
	note g2  $08
	wait1 $08
	note c2  $08
	wait1 $08
	note c2  $08
	wait1 $08
	note e3  $10
	note g2  $08
	wait1 $18
	note g2  $08
	wait1 $08
	note c3  $08
	wait1 $08
	note g2  $08
	wait1 $08
	note c2  $08
	wait1 $08
	note c2  $08
	wait1 $08
	note e3  $10
	note c3  $08
	note g2  $08
	wait1 $10
	note g2  $08
	wait1 $08
	note as2 $08
	wait1 $08
	note c3  $08
	wait1 $08
	note c2  $08
	wait1 $08
	note c2  $08
	wait1 $08
	note e3  $10
	note c3  $08
	note g2  $08
	wait1 $10
	note c3  $08
	wait1 $08
	note as2 $08
	wait1 $08
	note c3  $08
	wait1 $08
	note c2  $10
	wait1 $08
	note ds3 $08
	note e3  $10
	note c3  $08
	note g2  $08
	note c3  $08
	wait1 $08
	note g2  $08
	wait1 $08
	note as2 $08
	wait1 $08
	note c3  $08
	wait1 $08
	note c2  $08
	wait1 $08
	note c2  $08
	wait1 $08
	note e3  $10
	note c3  $08
	note g2  $08
	note c3  $08
	wait1 $08
	note g2  $08
	wait1 $08
	note as2 $08
	wait1 $08
	note c3  $08
	wait1 $08
	note c2  $08
	wait1 $08
	note c2  $08
	wait1 $08
	note e3  $10
	note c3  $08
	note g2  $08
	note c3  $08
	wait1 $08
	note g2  $08
	wait1 $08
	note as2 $08
	wait1 $08
	note c3  $08
	wait1 $08
	note c2  $10
	wait1 $10
	note e3  $10
	note c3  $08
	note g2  $08
	wait1 $10
	note c3  $08
	wait1 $08
	note as2 $08
	wait1 $08
	note c3  $08
	wait1 $08
	note c2  $10
	wait1 $08
	note ds3 $08
	note e3  $10
	note c3  $08
	note g2  $08
	note c3  $08
	wait1 $08
	note g2  $08
	wait1 $08
	note as2 $08
	wait1 $08
	note c3  $08
	wait1 $08
	note c2  $08
	wait1 $18
	note e3  $10
	note c3  $08
	note g2  $08
	note c3  $08
	wait1 $08
	note g2  $08
	wait1 $08
	note as2 $08
	wait1 $08
	note c3  $08
	wait1 $08
	note c2  $08
	wait1 $08
	note c2  $08
	wait1 $08
	note e3  $10
	note c3  $08
	note g2  $08
	wait1 $10
	note g2  $08
	wait1 $08
	note c3  $08
	wait1 $08
	note g2  $08
	wait1 $08
	note c2  $08
	wait1 $08
	note c2  $08
	wait1 $08
	note e3  $10
	note c3  $08
	note g2  $04
	wait1 $04
	note g2  $08
	wait1 $08
	note as2 $08
	wait1 $08
	note c3  $08
	wait1 $08
	note g2  $08
	wait1 $08
	note c2  $08
	wait1 $08
	note c2  $08
	wait1 $08
	note e3  $10
	note c3  $08
	note g2  $04
	wait1 $04
	note g2  $08
	wait1 $08
	note as2 $08
	wait1 $08
	note c3  $08
	wait1 $08
	note g2  $08
	wait1 $08
	note c2  $20
	note e3  $08
	wait1 $08
	note g2  $08
	wait1 $18
	note g2  $08
	wait1 $08
	note as2 $08
	wait1 $08
	note c3  $08
	wait1 $08
	note c2  $08
	wait1 $08
	note c2  $08
	wait1 $08
	note e3  $08
	wait1 $08
	note g2  $08
	wait1 $18
	note g2  $08
	wait1 $08
	note c3  $08
	wait1 $08
	note g2  $08
	wait1 $08
	note c2  $08
	wait1 $10
	note c2  $08
	note e3  $18
	note g2  $08
	wait1 $10
	note g2  $08
	note as2 $08
	note c3  $08
	wait1 $08
	note g2  $08
	wait1 $08
	note c2  $08
	wait1 $08
	note c2  $08
	wait1 $08
	note e3  $08
	wait1 $08
	note g2  $08
	wait1 $18
	note g2  $08
	wait1 $08
	note c3  $08
	wait1 $08
	note g2  $08
	wait1 $08
	note c2  $08
	wait1 $08
	note c2  $08
	wait1 $08
	note e3  $10
	note c3  $08
	note g2  $08
	note c3  $08
	wait1 $08
	note g2  $08
	wait1 $08
	note as2 $08
	wait1 $08
	note c3  $08
	wait1 $08
	note c2  $08
	wait1 $08
	note c2  $08
	wait1 $08
	note e3  $10
	note c3  $08
	note g2  $08
	wait1 $10
	note c3  $08
	wait1 $08
	note as2 $08
	wait1 $08
	note c3  $08
	wait1 $08
	note c2  $0a
	wait1 $0e
	note ds3 $08
	note e3  $10
	note c3  $08
	note g2  $08
	note c3  $08
	wait1 $08
	note g2  $08
	wait1 $08
	note as2 $08
	wait1 $08
	note c3  $08
	wait1 $08
	goto musicf87b3
	cmdff
; $f8b3e
; @addr{f8b3e}
sound3eChannel4:
musicf8b3e:
	duty $17
	wait1 $30
	note g3  $0d
	wait1 $23
	note f3  $08
	wait1 $08
	note e3  $08
	wait1 $b8
	note g3  $02
	wait1 $06
	note g3  $02
	wait1 $06
	note g3  $04
	wait1 $0c
	note g3  $04
	wait1 $0c
	note f3  $04
	wait1 $0c
	note e3  $04
	wait1 $6c
	note d3  $08
	wait1 $08
	note e3  $04
	wait1 $3c
	note g3  $0d
	wait1 $23
	note f3  $08
	wait1 $08
	note e3  $08
	wait1 $b8
	note g3  $02
	wait1 $06
	note g3  $02
	wait1 $06
	note g3  $04
	wait1 $0c
	note g3  $04
	wait1 $0c
	note f3  $04
	wait1 $0c
	note e3  $04
	wait1 $6c
	note d3  $08
	wait1 $08
	note e3  $04
	wait1 $6c
	note d3  $08
	wait1 $08
	note e3  $04
	wait1 $0c
	note d3  $08
	wait1 $08
	note e3  $04
	wait1 $4c
	note d3  $08
	wait1 $08
	note e3  $04
	wait1 $6c
	note f3  $06
	wait1 $0a
	note f3  $04
	wait1 $0c
	note f3  $06
	wait1 $0a
	note f3  $04
	wait1 $ff
	wait1 $ff
	wait1 $3e
	duty $17
	note e4  $08
	wait1 $08
	note f4  $08
	wait1 $08
	note e4  $08
	wait1 $08
	note f4  $08
	wait1 $08
	note e4  $08
	wait1 $08
	note g4  $0c
	wait1 $14
	note g4  $0a
	wait1 $16
	note f4  $08
	wait1 $08
	note e4  $08
	wait1 $38
	note e4  $08
	wait1 $08
	note f4  $08
	wait1 $08
	note e4  $08
	wait1 $08
	note f4  $08
	wait1 $08
	note e4  $08
	wait1 $08
	note f4  $08
	wait1 $08
	note e4  $08
	wait1 $08
	note g4  $0c
	wait1 $14
	note g4  $10
	wait1 $10
	note f4  $08
	wait1 $08
	note e4  $08
	wait1 $ff
	wait1 $ff
	wait1 $3a
	duty $17
	note g3  $0d
	wait1 $23
	note f3  $08
	wait1 $08
	note e3  $08
	wait1 $b8
	note g3  $04
	wait1 $04
	note g3  $04
	wait1 $04
	note g3  $08
	wait1 $08
	note g3  $08
	wait1 $08
	note f3  $08
	wait1 $08
	note e3  $08
	wait1 $58
	note e4  $08
	wait1 $08
	note f4  $08
	wait1 $08
	note e4  $08
	wait1 $08
	note f4  $08
	wait1 $08
	note e4  $08
	wait1 $08
	note g4  $08
	wait1 $18
	note g4  $08
	wait1 $18
	note f4  $08
	wait1 $08
	note e4  $08
	wait1 $38
	note e4  $08
	wait1 $08
	note f4  $08
	wait1 $08
	note e4  $08
	wait1 $08
	note f4  $08
	wait1 $08
	note e4  $08
	wait1 $08
	note f4  $08
	wait1 $08
	note e4  $08
	wait1 $08
	note g4  $08
	wait1 $18
	note g4  $08
	wait1 $18
	note f4  $08
	wait1 $08
	note e4  $08
	wait1 $ff
	wait1 $89
	goto musicf8b3e
	cmdff
; $f8c98
; @addr{f8c98}
sound3eChannel6:
musicf8c98:
	vol $6
	note $24 $10
	note $24 $60
	note $24 $10
	note $24 $10
	note $24 $30
	note $24 $30
	note $24 $10
	note $24 $10
	note $24 $60
	note $24 $10
	note $24 $10
	note $24 $30
	note $24 $30
	note $24 $10
	note $24 $10
	note $24 $60
	note $24 $10
	note $24 $10
	note $24 $30
	note $24 $30
	note $24 $10
	note $24 $10
	note $24 $60
	note $24 $10
	note $24 $10
	note $24 $30
	note $24 $30
	note $24 $10
	note $24 $10
	note $24 $60
	note $24 $10
	note $24 $10
	note $24 $30
	note $24 $30
	note $24 $10
	note $24 $10
	note $24 $60
	note $24 $10
	note $24 $10
	note $24 $30
	note $24 $30
	note $24 $10
	note $24 $10
	note $24 $60
	note $24 $10
	note $24 $10
	note $24 $30
	note $24 $30
	note $24 $10
	note $24 $10
	note $24 $60
	note $24 $10
	note $24 $10
	note $24 $30
	note $24 $30
	note $24 $10
	note $24 $10
	note $24 $60
	note $24 $10
	note $24 $10
	note $24 $30
	note $24 $30
	note $24 $10
	note $24 $10
	note $24 $60
	note $24 $10
	note $24 $10
	note $24 $30
	note $24 $30
	note $24 $10
	note $24 $10
	note $24 $60
	note $24 $10
	note $24 $10
	note $24 $30
	note $24 $30
	note $24 $10
	note $24 $10
	note $24 $60
	note $24 $10
	note $24 $10
	note $24 $30
	note $24 $30
	note $24 $10
	note $24 $10
	note $24 $60
	note $24 $10
	note $24 $10
	note $24 $30
	note $24 $30
	note $24 $10
	note $24 $10
	note $24 $60
	note $24 $10
	note $24 $10
	note $24 $30
	note $24 $30
	note $24 $10
	note $24 $10
	note $24 $60
	note $24 $10
	note $24 $10
	note $24 $30
	note $24 $30
	note $24 $10
	note $24 $10
	note $24 $60
	note $24 $10
	note $24 $10
	note $24 $30
	note $24 $30
	note $24 $10
	note $24 $10
	note $24 $60
	note $24 $10
	goto musicf8c98
	cmdff