; $f33a4
sound17Start:
; @addr{f33a4}
sound17Channel1:
	vibrato $e1
	env $0 $00
	duty $01
musicf33aa:
	vol $6
	note a4  $1a
	note gs4 $1a
	note g4  $1a
	note cs5 $1a
	note c5  $1a
	note fs4 $1a
	note b4  $1a
	note f4  $1a
	note as4 $1a
	note e4  $1a
	note a4  $1a
	note d4  $1a
	vol $3
	note d4  $1a
	vol $6
	note a4  $0d
	note gs4 $0d
	note g4  $1a
	note cs5 $1a
	note d5  $1a
	note a4  $1a
	note c5  $1a
	note gs4 $1a
	note b4  $1a
	note g4  $1a
	note as4 $1a
	note fs4 $1a
	note a4  $0d
	note e4  $0d
	note gs4 $0d
	note d4  $06
	wait1 $07
	vol $3
	note d4  $06
	wait1 $07
	vol $1
	note d4  $06
	wait1 $07
	vol $6
	note a4  $0d
	note e4  $0d
	note gs4 $0d
	note d4  $06
	wait1 $07
	vol $3
	note d4  $06
	wait1 $07
	vol $1
	note d4  $06
	wait1 $07
	vol $6
	note d4  $0d
	note gs4 $0d
	note a4  $0d
	note as4 $0d
	note b4  $4e
	note as4 $08
	note a4  $09
	note gs4 $09
	note d4  $0d
	wait1 $06
	vol $3
	note d4  $0d
	wait1 $07
	vol $1
	note d4  $0d
	wait1 $06
	vol $0
	note d4  $0d
	wait1 $55
	vol $6
	note d5  $1a
	note a4  $1a
	note cs5 $1a
	note gs4 $1a
	vol $3
	note gs4 $1a
	vol $6
	note g4  $1a
	note fs4 $1a
	note ds5 $1a
	note e5  $1a
	note c5  $1a
	note cs5 $1a
	note gs4 $1a
	note b4  $82
	note as4 $08
	note a4  $09
	note gs4 $09
	note d4  $08
	wait1 $05
	vol $3
	note d4  $08
	wait1 $05
	vol $1
	note d4  $08
	wait1 $05
	vol $0
	note d4  $08
	wait1 $6d
	vol $6
	note c4  $08
	wait1 $05
	note c4  $08
	wait1 $05
	note fs4 $06
	wait1 $07
	vol $3
	note fs4 $06
	wait1 $07
	vol $1
	note fs4 $06
	wait1 $14
	vol $6
	note c4  $06
	wait1 $07
	note c4  $06
	wait1 $07
	note fs4 $06
	wait1 $07
	vol $3
	note fs4 $06
	wait1 $07
	vol $1
	note fs4 $06
	wait1 $14
	vol $6
	note c4  $06
	wait1 $07
	note c4  $06
	wait1 $07
	note fs4 $06
	wait1 $07
	note fs4 $06
	wait1 $07
	note as4 $0d
	note a4  $0d
	note f4  $0d
	note gs4 $0d
	note g4  $0d
	note ds4 $0d
	note fs4 $0d
	note d4  $06
	wait1 $07
	vol $5
	note d4  $06
	wait1 $07
	vol $3
	note d4  $06
	wait1 $07
	vol $3
	note d4  $06
	wait1 $07
	vol $2
	note d4  $06
	wait1 $3b
	goto musicf33aa
	cmdff
; $f34cb
; @addr{f34cb}
sound17Channel0:
	vibrato $e1
	env $0 $00
	duty $01
musicf34d1:
	vol $6
	note f4  $1a
	note e4  $1a
	note ds4 $1a
	vol $6
	note a4  $1a
	note gs4 $1a
	note d4  $1a
	note gs4 $1a
	note cs4 $1a
	note fs4 $1a
	note c4  $1a
	note f4  $1a
	note b3  $1a
	vol $3
	note b3  $1a
	vol $6
	note f4  $0d
	note e4  $0d
	note ds4 $1a
	note a4  $1a
	note as4 $1a
	note f4  $1a
	note gs4 $1a
	note e4  $1a
	note g4  $1a
	note ds4 $1a
	note fs4 $1a
	note d4  $1a
	note f4  $0d
	note c5  $0d
	note e4  $0d
	note b4  $06
	wait1 $07
	vol $3
	note b4  $06
	wait1 $07
	vol $1
	note b4  $06
	wait1 $07
	vol $6
	note f4  $0d
	note c4  $0d
	note e4  $0d
	note as3 $06
	wait1 $07
	vol $3
	note as3 $06
	wait1 $07
	vol $1
	note as3 $06
	wait1 $3b
	vol $6
	note d5  $0d
	note gs5 $0d
	note a5  $0d
	note as5 $0d
	note b5  $34
	note as5 $08
	note a5  $09
	note gs5 $09
	note d5  $08
	wait1 $05
	vol $3
	note d5  $08
	wait1 $05
	vol $1
	note d5  $08
	wait1 $05
	vol $0
	note d5  $08
	wait1 $53
	vol $6
	note as4 $1a
	note f4  $1a
	note a4  $1a
	note e4  $1a
	vol $3
	note e4  $1a
	vol $6
	note ds4 $1a
	note d4  $1a
	note b4  $1a
	note c5  $1a
	note gs4 $1a
	note a4  $1a
	note e4  $1a
	note g4  $0d
	note ds4 $0d
	note fs4 $0d
	note d4  $06
	wait1 $07
	vol $3
	note d4  $06
	wait1 $07
	vol $1
	note d4  $06
	wait1 $07
	vol $6
	note g4  $0d
	note ds4 $0d
	note fs4 $0d
	note d4  $06
	wait1 $07
	vol $3
	note d4  $06
	wait1 $07
	vol $1
	note d4  $06
	wait1 $07
	vol $6
	note as3 $06
	wait1 $07
	vol $3
	note as3 $06
	wait1 $07
	vol $1
	note as3 $06
	wait1 $07
	vol $0
	note as3 $06
	wait1 $6f
	vol $6
	note gs3 $06
	wait1 $07
	note gs3 $06
	wait1 $07
	note d4  $06
	wait1 $07
	vol $3
	note d4  $06
	wait1 $07
	vol $1
	note d4  $06
	wait1 $07
	vol $0
	note d4  $06
	wait1 $07
	vol $6
	note gs3 $06
	wait1 $07
	note gs3 $06
	wait1 $07
	note d4  $06
	wait1 $07
	vol $3
	note d4  $06
	wait1 $07
	vol $1
	note d4  $06
	wait1 $07
	vol $0
	note d4  $06
	wait1 $07
	vol $6
	note gs3 $06
	wait1 $07
	note gs3 $06
	wait1 $07
	note d4  $06
	wait1 $07
	note d4  $06
	wait1 $07
	note fs4 $0d
	note f4  $0d
	note cs4 $0d
	note e4  $0d
	note ds4 $0d
	note b3  $0d
	note d4  $0d
	note as3 $06
	wait1 $07
	vol $3
	note as3 $06
	wait1 $07
	vol $1
	note as3 $06
	wait1 $07
	vol $0
	note as3 $06
	wait1 $48
	goto musicf34d1
	cmdff
; $f361a
; @addr{f361a}
sound17Channel4:
musicf361a:
	duty $0e
	note c3  $0d
	duty $0f
	note c3  $0d
	duty $0e
	note c3  $0d
	duty $0f
	note c3  $0d
	duty $0e
	note f3  $1a
	note fs3 $1a
	wait1 $1a
	note c3  $0d
	duty $0f
	note c3  $0d
	duty $0e
	note f3  $1a
	note fs3 $1a
	note c3  $0d
	duty $0f
	note c3  $0d
	duty $0e
	note c3  $0d
	duty $0f
	note c3  $0d
	wait1 $1a
	duty $0e
	note c3  $0d
	duty $0f
	note c3  $0d
	duty $0e
	note fs3 $1a
	note f3  $1a
	note c3  $0d
	duty $0f
	note c3  $0d
	duty $0e
	note c3  $0d
	duty $0f
	note c3  $0d
	wait1 $1a
	duty $0e
	note c3  $0d
	duty $0f
	note c3  $0d
	duty $0e
	note f3  $1a
	note fs3 $1a
	note c3  $0d
	duty $0f
	note c3  $0d
	duty $0e
	note c3  $0d
	duty $0f
	note c3  $0d
	wait1 $1a
	duty $0e
	note c3  $0d
	duty $0f
	note c3  $0d
	wait1 $34
	duty $0e
	note c4  $0d
	duty $0f
	note c4  $0d
	wait1 $34
	duty $0e
	note c3  $0d
	duty $0f
	note c3  $0d
	wait1 $ff
	wait1 $39
	duty $0e
	note d3  $0d
	duty $0f
	note d3  $0d
	duty $0e
	note d3  $0d
	duty $0f
	note d3  $0d
	duty $0e
	note a3  $1a
	note as3 $1a
	wait1 $1a
	note d3  $0d
	duty $0f
	note d3  $0d
	duty $0e
	note a3  $1a
	note as3 $1a
	note d3  $0d
	duty $0f
	note d3  $0d
	duty $0e
	note d3  $0d
	duty $0f
	note d3  $0d
	duty $0e
	note as3 $0d
	duty $0f
	note as3 $0d
	duty $0e
	note as3 $0d
	duty $0f
	note as3 $0d
	wait1 $34
	duty $0e
	note d3  $0d
	duty $0f
	note d3  $0d
	wait1 $34
	duty $0e
	note d3  $0d
	duty $0f
	note d3  $0d
	wait1 $d0
	duty $0e
	note c3  $0d
	duty $0f
	note c3  $0d
	wait1 $34
	duty $0e
	note c3  $0d
	duty $0f
	note c3  $0d
	wait1 $34
	duty $0e
	note d4  $0d
	note cs4 $0d
	note a3  $0d
	note c4  $0d
	note b3  $0d
	note g3  $0d
	note as3 $0d
	note fs3 $0d
	duty $0f
	note fs3 $0d
	wait1 $5b
	goto musicf361a
	cmdff
; $f3732
; @addr{f3732}
sound17Channel6:
musicf3732:
	wait1 $ff
	wait1 $ff
	wait1 $a6
	vol $4
	note $2e $34
	wait1 $1a
	note $2e $34
	wait1 $ea
	note $2a $0d
	note $2a $0d
	note $2e $34
	wait1 $ff
	wait1 $ff
	wait1 $24
	note $2a $0d
	note $2a $0d
	note $2e $1a
	wait1 $9c
	note $2a $0d
	note $2a $0d
	note $2e $1a
	wait1 $9c
	note $2a $0d
	note $2a $0d
	note $2a $0d
	note $2e $0d
	goto musicf3732
	cmdff