sound0bStart:
; $ef3bc
; @addr{ef3bc}
sound0bChannel1:
	cmdf2
	vibrato $e1
	env $0 $00
	duty $01
musicef3c3:
	vol $6
	note g5  $2c
	vol $6
	note c6  $2c
	note a5  $2c
	vibrato $01
	vol $3
	note a5  $16
	vibrato $e1
	vol $6
	note b5  $0b
	note c6  $0b
	note b5  $16
	note a5  $0b
	wait1 $05
	vol $3
	note a5  $06
	vol $6
	note g5  $0b
	wait1 $05
	vol $3
	note g5  $06
	vol $6
	note f5  $0b
	wait1 $05
	vol $3
	note f5  $06
	vol $6
	note e5  $16
	note f5  $0b
	wait1 $05
	vol $3
	note f5  $06
	vol $6
	note g5  $0b
	wait1 $05
	vol $3
	note g5  $0b
	wait1 $06
	vol $1
	note g5  $0b
	vol $6
	note a5  $16
	note e6  $0b
	wait1 $05
	vol $3
	note e6  $06
	vol $6
	note e6  $0b
	wait1 $05
	vol $3
	note e6  $0b
	wait1 $06
	vol $1
	note e6  $0b
	wait1 $2c
	vol $6
	note d6  $0b
	note c6  $0b
	note b5  $0b
	note a5  $0b
	note g5  $16
	note a5  $0b
	wait1 $05
	vol $3
	note a5  $06
	vol $6
	note g5  $0b
	wait1 $0b
	note a5  $0b
	wait1 $05
	vol $3
	note a5  $06
	vol $6
	note g5  $16
	vol $3
	note g5  $0b
	wait1 $0b
	vol $6
	note f5  $16
	note g5  $16
	note a5  $2c
	note f5  $16
	note e5  $16
	note d5  $2c
	vol $6
	note b5  $16
	vol $6
	note a5  $16
	note g5  $2c
	note e5  $16
	note g5  $16
	note c6  $2c
	vibrato $01
	vol $3
	note c6  $16
	vibrato $e1
	vol $6
	note a5  $0b
	note g5  $0b
	note f5  $16
	note g5  $16
	note a5  $16
	note b5  $16
	vol $6
	note c6  $16
	vol $6
	note b5  $16
	note c6  $16
	note a5  $16
	note d6  $0b
	wait1 $05
	vol $3
	note d6  $0b
	wait1 $06
	vol $1
	note d6  $0b
	vol $6
	note g5  $0b
	wait1 $05
	vol $3
	note g5  $06
	vol $6
	note b5  $0b
	vol $6
	note a5  $0b
	note g5  $2c
	vibrato $01
	vol $3
	note g5  $12
	wait1 $04
	vibrato $e1
	vol $6
	note g5  $0b
	wait1 $05
	vol $3
	note g5  $06
	goto musicef3c3
	cmdff
; $ef4b0
; @addr{ef4b0}
sound0bChannel0:
	cmdf2
	vibrato $00
	env $0 $00
	duty $01
musicef4b7:
	vol $6
	note e4  $1d
	vol $3
	note e4  $0b
	wait1 $04
	vol $6
	note c4  $1d
	vol $3
	note c4  $0b
	wait1 $04
	vol $6
	note f4  $1d
	vol $3
	note f4  $0b
	wait1 $04
	vol $6
	note d4  $1d
	vol $3
	note d4  $0b
	wait1 $04
	vol $6
	note g4  $16
	note f4  $0b
	wait1 $05
	vol $3
	note f4  $06
	vol $6
	note e4  $0b
	wait1 $05
	vol $3
	note e4  $06
	vol $6
	note d4  $0b
	wait1 $05
	vol $3
	note d4  $06
	vol $6
	note c4  $16
	note d4  $0b
	wait1 $05
	vol $3
	note d4  $06
	vol $6
	note e4  $0b
	wait1 $05
	vol $3
	note e4  $0b
	wait1 $06
	vol $1
	note e4  $0b
	vol $6
	note f4  $19
	vol $3
	note f4  $0b
	wait1 $34
	vol $6
	note fs4 $19
	vol $3
	note fs4 $0b
	wait1 $08
	vol $6
	note d4  $19
	vol $3
	note d4  $0b
	wait1 $08
	vol $6
	note b3  $16
	note c4  $0b
	wait1 $05
	vol $3
	note c4  $06
	vol $6
	note b3  $0b
	wait1 $05
	vol $3
	note b3  $06
	vol $6
	note d4  $0b
	wait1 $05
	vol $3
	note d4  $06
	vol $6
	note g4  $0b
	wait1 $05
	vol $3
	note g4  $06
	vol $6
	note d4  $0b
	wait1 $05
	vol $3
	note d4  $06
	vol $6
	note b3  $0b
	wait1 $05
	vol $3
	note b3  $0b
	wait1 $06
	vol $1
	note b3  $0b
	vol $6
	note f4  $2c
	vol $3
	note f4  $2c
	vol $6
	note g4  $19
	vol $3
	note g4  $0b
	wait1 $08
	vol $6
	note f4  $19
	vol $3
	note f4  $0b
	wait1 $08
	vol $6
	note e4  $19
	vol $3
	note e4  $0b
	wait1 $08
	vol $6
	note d4  $19
	vol $3
	note d4  $0b
	wait1 $08
	vol $6
	note c4  $2c
	note b3  $2c
	note a3  $16
	note f4  $0b
	wait1 $05
	vol $3
	note f4  $06
	vol $6
	note c4  $0b
	wait1 $05
	vol $3
	note c4  $0b
	wait1 $06
	vol $1
	note c4  $0b
	vol $6
	note e4  $16
	note f4  $0b
	wait1 $05
	vol $3
	note f4  $06
	vol $6
	note f4  $0b
	wait1 $05
	vol $3
	note f4  $0b
	wait1 $06
	vol $1
	note f4  $0b
	vol $6
	note b3  $16
	vol $3
	note b3  $16
	vol $6
	note g4  $16
	vol $3
	note g4  $16
	vol $6
	note g4  $16
	note f4  $16
	note e4  $16
	note d4  $16
	goto musicef4b7
	cmdff
; $ef5c8
; @addr{ef5c8}
sound0bChannel4:
	cmdf2
musicef5c9:
	duty $0e
	note c4  $21
	duty $0f
	note c4  $21
	wait1 $16
	duty $0e
	note d4  $21
	duty $0f
	note d4  $21
	wait1 $16
	duty $0e
	note g3  $2c
	duty $0f
	note g3  $2c
	duty $0e
	note c3  $16
	note d3  $16
	note e3  $0b
	duty $0f
	note e3  $0b
	wait1 $16
	duty $0e
	note f3  $2c
	note e3  $2c
	note d3  $2c
	note a3  $2c
	note g3  $42
	note b3  $16
	note d4  $21
	wait1 $37
	note d4  $42
	note c4  $16
	note b3  $2c
	note g3  $2c
	note c4  $2c
	duty $0f
	note c4  $16
	duty $0e
	note b3  $16
	note e4  $2c
	note d4  $2c
	note c4  $2c
	note f4  $16
	duty $0f
	note f4  $16
	duty $0e
	note f3  $2c
	note a3  $16
	duty $0f
	note a3  $16
	duty $0e
	note g3  $16
	note a3  $16
	note b3  $16
	note a3  $16
	note g3  $2c
	wait1 $2c
	goto musicef5c9
sound0bchannel6:	
    cmdff