sound0cStart:
; $fbb1b
; @addr{fbb1b}
sound0cChannel1:
	vibrato $00
	env $0 $00
	duty $02
musicfbb21:
	vol $6
	note a5  $0b
	vol $3
	note a5  $0b
	vol $6
	note fs5 $0b
	vol $3
	note fs5 $0b
	vol $6
	note a5  $0b
	vol $3
	note a5  $0b
	vol $6
	note fs5 $0b
	vol $3
	note fs5 $0b
	vol $6
	note b5  $0b
	wait1 $0b
	note gs5 $0b
	wait1 $03
	vol $3
	note gs5 $05
	wait1 $06
	vol $2
	note gs5 $05
	wait1 $06
	vol $1
	note gs5 $05
	wait1 $19
	vol $6
	note g5  $0b
	vol $3
	note e5  $0b
	vol $6
	note e5  $0b
	vol $3
	note e5  $0b
	vol $6
	note a5  $0b
	vol $3
	note a5  $0b
	vol $6
	note fs5 $0b
	vol $4
	note fs5 $05
	wait1 $06
	vol $3
	note fs5 $05
	wait1 $06
	vol $3
	note fs5 $05
	wait1 $48
	vol $6
	note f5  $0b
	vol $3
	note f5  $0b
	vol $6
	note d5  $0b
	vol $3
	note d5  $0b
	vol $6
	note f5  $0b
	vol $3
	note f5  $0b
	vol $6
	note d5  $0b
	vol $3
	note d5  $0b
	wait1 $0b
	vol $6
	note e5  $0b
	note f5  $0b
	note g5  $0b
	wait1 $07
	vol $3
	note g5  $05
	wait1 $05
	vol $3
	note g5  $06
	wait1 $05
	vol $1
	note g5  $06
	wait1 $0a
	vol $6
	note b5  $07
	wait1 $04
	vol $3
	note b5  $07
	wait1 $04
	vol $6
	note a5  $07
	wait1 $04
	vol $3
	note a5  $07
	wait1 $04
	vol $6
	note b5  $07
	wait1 $04
	vol $3
	note b5  $07
	wait1 $04
	vol $6
	note a5  $07
	wait1 $04
	vol $3
	note a5  $07
	wait1 $04
	vol $6
	note gs5 $05
	wait1 $09
	vol $4
	note gs5 $03
	wait1 $08
	vol $3
	note gs5 $03
	wait1 $08
	vol $2
	note gs5 $03
	wait1 $05
	vol $6
	note g5  $05
	wait1 $09
	vol $3
	note g5  $03
	wait1 $08
	vol $2
	note g5  $03
	wait1 $08
	vol $1
	note g5  $03
	wait1 $05
	vol $7
	note b5  $0b
	wait1 $05
	vol $3
	note b5  $06
	vol $6
	note d6  $0b
	wait1 $05
	vol $3
	note d6  $06
	vol $6
	note e6  $0b
	wait1 $05
	vol $3
	note e6  $06
	vol $6
	note cs6 $0b
	wait1 $05
	vol $3
	note cs6 $06
	vol $6
	note e5  $07
	wait1 $07
	vol $3
	note e5  $01
	wait1 $0a
	vol $2
	note e5  $05
	wait1 $0e
	vol $6
	note cs5 $07
	wait1 $07
	vol $3
	note cs5 $01
	wait1 $1d
	vol $6
	note a5  $0b
	wait1 $05
	vol $3
	note a5  $06
	vol $6
	note b5  $0b
	wait1 $05
	vol $3
	note b5  $06
	vol $6
	note d6  $0b
	wait1 $05
	vol $3
	note d6  $06
	vol $6
	note cs6 $0b
	wait1 $05
	vol $3
	note cs6 $06
	vol $6
	note b5  $0b
	wait1 $03
	vol $2
	note b5  $05
	wait1 $06
	vol $1
	note b5  $05
	wait1 $3a
	vol $6
	note g5  $0b
	wait1 $05
	vol $3
	note g5  $06
	vol $6
	note a5  $0b
	wait1 $05
	vol $3
	note a5  $06
	vol $6
	note b5  $0b
	wait1 $05
	vol $3
	note b5  $06
	wait1 $05
	vol $2
	note b5  $06
	wait1 $0b
	vol $6
	note a5  $0b
	wait1 $05
	vol $3
	note a5  $06
	vol $6
	note e5  $0b
	wait1 $05
	vol $3
	note e5  $06
	vol $6
	note d6  $0b
	wait1 $05
	vol $3
	note d6  $06
	wait1 $0b
	vol $6
	note cs6 $05
	note c6  $06
	vol $6
	note b5  $6e
	wait1 $42
	goto musicfbb21
	cmdff
; $fbca6
; @addr{fbca6}
sound0cChannel0:
	vibrato $00
	env $0 $00
	duty $02
musicfbcac:
	wait1 $0b
	vol $6
	note d5  $0b
	wait1 $05
	vol $3
	note d5  $06
	vol $6
	note d5  $0b
	wait1 $0b
	note d5  $0b
	wait1 $05
	vol $3
	note d5  $06
	vol $6
	note d5  $0b
	wait1 $0b
	note d5  $0b
	wait1 $05
	vol $4
	note d5  $06
	wait1 $03
	vol $3
	note d5  $05
	wait1 $06
	vol $2
	note d5  $05
	wait1 $2f
	vol $6
	note c5  $0b
	wait1 $07
	vol $3
	note c5  $06
	vol $6
	note c5  $0b
	wait1 $05
	vol $3
	note c5  $04
	vol $6
	note d5  $0b
	wait1 $05
	vol $3
	note d5  $06
	vol $6
	note d5  $0b
	wait1 $05
	vol $3
	note d5  $06
	wait1 $05
	vol $3
	note d5  $06
	wait1 $05
	vol $2
	note d5  $06
	wait1 $42
	vol $6
	note c5  $0b
	wait1 $07
	vol $3
	note c5  $06
	vol $6
	note c5  $0b
	wait1 $03
	vol $3
	note c5  $06
	vol $6
	note c5  $0b
	wait1 $05
	vol $3
	note c5  $06
	vol $6
	note c5  $0b
	wait1 $05
	vol $4
	note c5  $06
	wait1 $05
	vol $3
	note c5  $06
	wait1 $05
	vol $2
	note c5  $06
	wait1 $0b
	vol $6
	note d6  $0b
	note e6  $0b
	note f6  $0b
	note g6  $0b
	wait1 $03
	vol $4
	note g6  $05
	wait1 $06
	vol $2
	note g6  $05
	wait1 $19
	vol $6
	note g5  $0b
	wait1 $03
	vol $4
	note g5  $05
	wait1 $19
	vol $6
	note c6  $05
	wait1 $06
	note c6  $05
	wait1 $06
	vol $4
	note c6  $05
	wait1 $06
	vol $2
	note c6  $05
	wait1 $06
	vol $6
	note b5  $05
	wait1 $06
	note b5  $05
	wait1 $06
	vol $4
	note b5  $05
	wait1 $06
	vol $2
	note b5  $05
	wait1 $11
	vol $6
	note b4  $0b
	wait1 $03
	vol $3
	note b4  $05
	wait1 $03
	vol $6
	note d5  $0b
	wait1 $03
	vol $3
	note d5  $05
	wait1 $03
	vol $6
	note e5  $0b
	wait1 $03
	vol $3
	note e5  $05
	wait1 $03
	vol $6
	note cs5 $0b
	wait1 $03
	vol $3
	note cs5 $05
	wait1 $03
	vol $6
	note b6  $03
	wait1 $03
	vol $2
	note b6  $05
	vol $6
	note g6  $07
	wait1 $04
	vol $3
	note g6  $05
	wait1 $11
	vol $6
	note b6  $03
	wait1 $03
	vol $3
	note b6  $05
	vol $6
	note g6  $07
	wait1 $04
	vol $3
	note g6  $05
	wait1 $11
	vol $6
	note fs5 $0b
	wait1 $03
	vol $3
	note fs5 $05
	wait1 $03
	vol $6
	note e5  $0b
	wait1 $05
	vol $3
	note e5  $06
	vol $6
	note g5  $0b
	wait1 $05
	vol $3
	note g5  $06
	vol $6
	note a5  $0b
	wait1 $03
	vol $3
	note a5  $05
	wait1 $03
	vol $6
	note fs5 $03
	wait1 $03
	vol $6
	note fs5 $05
	vol $6
	note d5  $03
	wait1 $03
	vol $6
	note d5  $05
	vol $5
	note fs5 $05
	wait1 $01
	vol $3
	note fs5 $05
	vol $6
	note cs5 $03
	wait1 $03
	vol $3
	note cs5 $05
	vol $7
	note fs5 $05
	wait1 $01
	vol $3
	note fs5 $05
	vol $6
	note b4  $03
	wait1 $03
	vol $3
	note b4  $05
	vol $6
	note fs5 $05
	wait1 $01
	vol $3
	note fs5 $05
	wait1 $0b
	vol $6
	note e5  $0b
	note fs5 $03
	wait1 $03
	vol $3
	note fs5 $05
	vol $6
	note e5  $03
	wait1 $03
	vol $3
	note e5  $05
	vol $4
	note e5  $0b
	vol $6
	note fs5 $0b
	note e5  $0b
	note b4  $0b
	wait1 $05
	vol $3
	note b4  $06
	vol $6
	note d5  $0b
	wait1 $05
	vol $3
	note d5  $06
	vol $6
	note a4  $0b
	wait1 $05
	vol $3
	note a4  $06
	vol $6
	note e5  $07
	vol $4
	note e5  $04
	vol $5
	note a4  $07
	note a4  $04
	wait1 $07
	vol $2
	note cs5 $03
	wait1 $01
	vol $7
	note gs4 $05
	wait1 $06
	vol $3
	note gs4 $05
	wait1 $06
	vol $6
	note cs5 $05
	wait1 $06
	vol $3
	note cs5 $05
	wait1 $06
	vol $7
	note gs5 $05
	wait1 $06
	vol $3
	note gs5 $05
	wait1 $06
	vol $7
	note cs5 $05
	wait1 $06
	vol $3
	note cs5 $05
	wait1 $06
	vol $7
	note gs5 $05
	wait1 $06
	vol $3
	note gs5 $05
	wait1 $06
	vol $6
	note cs6 $05
	wait1 $06
	vol $3
	note cs6 $05
	wait1 $06
	vol $6
	note gs6 $05
	wait1 $06
	vol $3
	note gs6 $05
	wait1 $06
	vol $7
	note cs6 $05
	wait1 $06
	vol $3
	note cs6 $05
	wait1 $06
	goto musicfbcac
sound0cChannel4:
sound0cChannel6:
	cmdff